<mxfile host="app.diagrams.net" agent="Mozilla/5.0 (Windows NT 10.0; Win64; x64) AppleWebKit/537.36 (KHTML, like Gecko) Chrome/134.0.0.0 Safari/537.36 OPR/119.0.0.0" version="27.2.0">
  <diagram name="Página-1" id="Igi3HhYYA3HB1_X38Dpa">
    <mxGraphModel grid="1" page="1" gridSize="10" guides="1" tooltips="1" connect="1" arrows="1" fold="1" pageScale="1" pageWidth="827" pageHeight="1169" math="0" shadow="0">
      <root>
        <mxCell id="0" />
        <mxCell id="1" parent="0" />
        <mxCell id="w6XITCfMHhZ2CO8w7tzE-1" value="DSS - Configurar Batalha" style="text;strokeColor=none;fillColor=none;html=1;fontSize=24;fontStyle=1;verticalAlign=middle;align=center;" vertex="1" parent="1">
          <mxGeometry x="230" y="140" width="350" height="60" as="geometry" />
        </mxCell>
        <mxCell id="w6XITCfMHhZ2CO8w7tzE-2" value="Usuario" style="shape=umlActor;verticalLabelPosition=bottom;verticalAlign=top;html=1;" vertex="1" parent="1">
          <mxGeometry x="200" y="180" width="30" height="60" as="geometry" />
        </mxCell>
        <mxCell id="w6XITCfMHhZ2CO8w7tzE-3" value="" style="endArrow=none;dashed=1;endFill=0;endSize=12;html=1;rounded=0;startFill=0;" edge="1" parent="1">
          <mxGeometry width="160" relative="1" as="geometry">
            <mxPoint x="215" y="270" as="sourcePoint" />
            <mxPoint x="215" y="650" as="targetPoint" />
            <Array as="points">
              <mxPoint x="215" y="380" />
            </Array>
          </mxGeometry>
        </mxCell>
        <mxCell id="w6XITCfMHhZ2CO8w7tzE-4" value=":Sistema" style="shape=umlLifeline;perimeter=lifelinePerimeter;whiteSpace=wrap;html=1;container=0;dropTarget=0;collapsible=0;recursiveResize=0;outlineConnect=0;portConstraint=eastwest;newEdgeStyle={&quot;edgeStyle&quot;:&quot;elbowEdgeStyle&quot;,&quot;elbow&quot;:&quot;vertical&quot;,&quot;curved&quot;:0,&quot;rounded&quot;:0};" vertex="1" parent="1">
          <mxGeometry x="460" y="210" width="130" height="440" as="geometry" />
        </mxCell>
        <mxCell id="w6XITCfMHhZ2CO8w7tzE-5" value="1: Iniciar &quot;seleção de grupo de personagens&quot;" style="text;whiteSpace=wrap;html=1;" vertex="1" parent="1">
          <mxGeometry x="250" y="270" width="250" height="25" as="geometry" />
        </mxCell>
        <mxCell id="w6XITCfMHhZ2CO8w7tzE-6" value="" style="endArrow=classic;endFill=1;endSize=12;html=1;rounded=0;" edge="1" parent="1">
          <mxGeometry width="160" relative="1" as="geometry">
            <mxPoint x="220" y="304.5" as="sourcePoint" />
            <mxPoint x="520" y="304.5" as="targetPoint" />
          </mxGeometry>
        </mxCell>
        <mxCell id="w6XITCfMHhZ2CO8w7tzE-7" value="" style="html=1;points=[];perimeter=orthogonalPerimeter;outlineConnect=0;targetShapes=umlLifeline;portConstraint=eastwest;newEdgeStyle={&quot;edgeStyle&quot;:&quot;elbowEdgeStyle&quot;,&quot;elbow&quot;:&quot;vertical&quot;,&quot;curved&quot;:0,&quot;rounded&quot;:0};" vertex="1" parent="1">
          <mxGeometry x="520" y="284" width="10" height="70" as="geometry" />
        </mxCell>
        <mxCell id="w6XITCfMHhZ2CO8w7tzE-8" value="" style="html=1;points=[];perimeter=orthogonalPerimeter;outlineConnect=0;targetShapes=umlLifeline;portConstraint=eastwest;newEdgeStyle={&quot;edgeStyle&quot;:&quot;elbowEdgeStyle&quot;,&quot;elbow&quot;:&quot;vertical&quot;,&quot;curved&quot;:0,&quot;rounded&quot;:0};" vertex="1" parent="1">
          <mxGeometry x="520" y="364" width="10" height="40" as="geometry" />
        </mxCell>
        <mxCell id="w6XITCfMHhZ2CO8w7tzE-9" value="" style="endArrow=classic;endFill=1;endSize=12;html=1;rounded=0;" edge="1" parent="1">
          <mxGeometry width="160" relative="1" as="geometry">
            <mxPoint x="220" y="370" as="sourcePoint" />
            <mxPoint x="520" y="370.5" as="targetPoint" />
          </mxGeometry>
        </mxCell>
        <mxCell id="w6XITCfMHhZ2CO8w7tzE-10" value="&amp;lt;&amp;lt;grupo de personagens selecionado&amp;gt;&amp;gt;" style="html=1;verticalAlign=bottom;endArrow=open;dashed=1;endSize=8;curved=0;rounded=0;" edge="1" parent="1">
          <mxGeometry relative="1" as="geometry">
            <mxPoint x="520.25" y="400" as="sourcePoint" />
            <mxPoint x="224.75" y="400" as="targetPoint" />
          </mxGeometry>
        </mxCell>
        <mxCell id="w6XITCfMHhZ2CO8w7tzE-11" value="" style="html=1;points=[];perimeter=orthogonalPerimeter;outlineConnect=0;targetShapes=umlLifeline;portConstraint=eastwest;newEdgeStyle={&quot;edgeStyle&quot;:&quot;elbowEdgeStyle&quot;,&quot;elbow&quot;:&quot;vertical&quot;,&quot;curved&quot;:0,&quot;rounded&quot;:0};" vertex="1" parent="1">
          <mxGeometry x="210" y="285" width="10" height="120" as="geometry" />
        </mxCell>
        <mxCell id="w6XITCfMHhZ2CO8w7tzE-12" value="&amp;lt;&amp;lt;mostra os grupos de personagens salvos&amp;gt;&amp;gt;" style="html=1;verticalAlign=bottom;endArrow=open;dashed=1;endSize=8;curved=0;rounded=0;" edge="1" parent="1">
          <mxGeometry relative="1" as="geometry">
            <mxPoint x="515" y="330" as="sourcePoint" />
            <mxPoint x="219.5" y="330" as="targetPoint" />
          </mxGeometry>
        </mxCell>
        <mxCell id="w6XITCfMHhZ2CO8w7tzE-13" value="2: escolhe grupo ()" style="text;whiteSpace=wrap;html=1;" vertex="1" parent="1">
          <mxGeometry x="310" y="350" width="165" height="17.5" as="geometry" />
        </mxCell>
        <mxCell id="w6XITCfMHhZ2CO8w7tzE-14" value="3: Iniciar &quot;seleção de grupo de inimigos&quot;" style="text;whiteSpace=wrap;html=1;align=center;" vertex="1" parent="1">
          <mxGeometry x="250" y="430" width="250" height="25" as="geometry" />
        </mxCell>
        <mxCell id="w6XITCfMHhZ2CO8w7tzE-15" value="" style="endArrow=classic;endFill=1;endSize=12;html=1;rounded=0;" edge="1" parent="1">
          <mxGeometry width="160" relative="1" as="geometry">
            <mxPoint x="220" y="464.5" as="sourcePoint" />
            <mxPoint x="520" y="464.5" as="targetPoint" />
          </mxGeometry>
        </mxCell>
        <mxCell id="w6XITCfMHhZ2CO8w7tzE-16" value="" style="html=1;points=[];perimeter=orthogonalPerimeter;outlineConnect=0;targetShapes=umlLifeline;portConstraint=eastwest;newEdgeStyle={&quot;edgeStyle&quot;:&quot;elbowEdgeStyle&quot;,&quot;elbow&quot;:&quot;vertical&quot;,&quot;curved&quot;:0,&quot;rounded&quot;:0};" vertex="1" parent="1">
          <mxGeometry x="520" y="444" width="10" height="70" as="geometry" />
        </mxCell>
        <mxCell id="w6XITCfMHhZ2CO8w7tzE-17" value="" style="html=1;points=[];perimeter=orthogonalPerimeter;outlineConnect=0;targetShapes=umlLifeline;portConstraint=eastwest;newEdgeStyle={&quot;edgeStyle&quot;:&quot;elbowEdgeStyle&quot;,&quot;elbow&quot;:&quot;vertical&quot;,&quot;curved&quot;:0,&quot;rounded&quot;:0};" vertex="1" parent="1">
          <mxGeometry x="520" y="524" width="10" height="40" as="geometry" />
        </mxCell>
        <mxCell id="w6XITCfMHhZ2CO8w7tzE-18" value="" style="endArrow=classic;endFill=1;endSize=12;html=1;rounded=0;" edge="1" parent="1">
          <mxGeometry width="160" relative="1" as="geometry">
            <mxPoint x="220" y="530" as="sourcePoint" />
            <mxPoint x="520" y="530.5" as="targetPoint" />
          </mxGeometry>
        </mxCell>
        <mxCell id="w6XITCfMHhZ2CO8w7tzE-19" value="&amp;lt;&amp;lt;grupo de inimigos selecionado&amp;gt;&amp;gt;" style="html=1;verticalAlign=bottom;endArrow=open;dashed=1;endSize=8;curved=0;rounded=0;" edge="1" parent="1">
          <mxGeometry relative="1" as="geometry">
            <mxPoint x="520.25" y="560" as="sourcePoint" />
            <mxPoint x="224.75" y="560" as="targetPoint" />
          </mxGeometry>
        </mxCell>
        <mxCell id="w6XITCfMHhZ2CO8w7tzE-20" value="" style="html=1;points=[];perimeter=orthogonalPerimeter;outlineConnect=0;targetShapes=umlLifeline;portConstraint=eastwest;newEdgeStyle={&quot;edgeStyle&quot;:&quot;elbowEdgeStyle&quot;,&quot;elbow&quot;:&quot;vertical&quot;,&quot;curved&quot;:0,&quot;rounded&quot;:0};" vertex="1" parent="1">
          <mxGeometry x="210" y="445" width="10" height="120" as="geometry" />
        </mxCell>
        <mxCell id="w6XITCfMHhZ2CO8w7tzE-21" value="&amp;lt;&amp;lt;mostra os grupos de inimigos salvos&amp;gt;&amp;gt;" style="html=1;verticalAlign=bottom;endArrow=open;dashed=1;endSize=8;curved=0;rounded=0;" edge="1" parent="1">
          <mxGeometry relative="1" as="geometry">
            <mxPoint x="515" y="490" as="sourcePoint" />
            <mxPoint x="219.5" y="490" as="targetPoint" />
          </mxGeometry>
        </mxCell>
        <mxCell id="w6XITCfMHhZ2CO8w7tzE-22" value="4: escolhe grupo ()" style="text;whiteSpace=wrap;html=1;" vertex="1" parent="1">
          <mxGeometry x="310" y="510" width="165" height="17.5" as="geometry" />
        </mxCell>
      </root>
    </mxGraphModel>
  </diagram>
</mxfile>
